# xmcd
#
# Track frame offsets: 
#        150
#        3950
#        19535
#        35330
#        51860
#        89560
#        102810
#        121890
#        144770
#        166845
#        176440
#        190360
#        200705
#        221980
#        245360
#        267585
#        284820
#        300025
#
# Disc length: 4232 seconds
#
# Revision: 2
# Processed by: cddbd v1.5.2PL0 Copyright (c) Steve Scherf et al.
# Submitted via: ExactAudioCopy v1.0b3
#
DISCID=f8108612
DTITLE=FREE - TONS OF SOBS (JAPANESE LTD. EDITION PAPERSLEEVE)
DYEAR=1968
DGENRE=Blues Rock/Classic Rock
TTITLE0=Over The Green Hills Pt. I (2001 Remaster)
TTITLE1=Worry (2001 Remaster)
TTITLE2=Walk In My Shadow (2001 Remaster)
TTITLE3=Wild Indian Woman (2001 Remaster)
TTITLE4=Goin' Down Slow (2001 Remaster)
TTITLE5=I'm A Mover (2001 Remaster)
TTITLE6=The Hunter (2001 Remaster)
TTITLE7=Moonshine (2001 Remaster)
TTITLE8=Sweet Tooth (2001 Remaster)
TTITLE9=Over The Green Hills Pt. II (2001 Remaster)
TTITLE10=I'm A Mover (BBC Session)
TTITLE11=Waitin' On You (BBC Session)
TTITLE12=Guy Stevens Blues (Blues Jam)
TTITLE13=Moonshine (Alternate Vocal)
TTITLE14=Sweet Tooth (Early Take and Alternative Lyrics)
TTITLE15=Visions Of Hell (Unreleased Master Mix)
TTITLE16=Woman By The Sea (Alternative Version)
TTITLE17=Over The Green Hills (BBC Session)
EXTD=
EXTT0=
EXTT1=
EXTT2=
EXTT3=
EXTT4=
EXTT5=
EXTT6=
EXTT7=
EXTT8=
EXTT9=
EXTT10=
EXTT11=
EXTT12=
EXTT13=
EXTT14=
EXTT15=
EXTT16=
EXTT17=
PLAYORDER=
